<svg xmlns="http://www.w3.org/2000/svg" viewBox="0 0 36 45" x="0px" y="0px"><title>Монтажная область 31</title><path d="M32.92,21.13a3.19,3.19,0,0,0,0-6.26,16.36,16.36,0,1,0,0,6.26ZM33.68,18a1.35,1.35,0,0,1-.49,1,1.3,1.3,0,0,1-.87.32,1.35,1.35,0,0,1-.95-.38A1.4,1.4,0,0,1,31,18a1.38,1.38,0,0,1,.42-1,1.35,1.35,0,0,1,.95-.38,1.3,1.3,0,0,1,.87.32A1.35,1.35,0,0,1,33.68,18ZM18.23,18a1.37,1.37,0,1,1-1.37-1.36A1.36,1.36,0,0,1,18.23,18ZM2.32,18a14.54,14.54,0,0,1,28.79-2.94,3.2,3.2,0,0,0-1.84,2H19.91a3.18,3.18,0,1,0,0,1.82h9.36a3.23,3.23,0,0,0,1.84,2A14.54,14.54,0,0,1,2.32,18Z"/><text x="0" y="51" fill="#000000" font-size="5px" font-weight="bold" font-family="'Helvetica Neue', Helvetica, Arial-Unicode, Arial, Sans-serif">Created by Vadim Solomakhin</text><text x="0" y="56" fill="#000000" font-size="5px" font-weight="bold" font-family="'Helvetica Neue', Helvetica, Arial-Unicode, Arial, Sans-serif">from the Noun Project</text></svg>