<svg xmlns="http://www.w3.org/2000/svg" version="1.1"
 viewBox="0 0 48 48" x="0px" y="0px">
 <path d="M16.001 1.728c-7.865 0-14.273 6.405-14.273 14.271s6.408 14.271 14.273 14.271c7.865 0 14.271-6.405 14.271-14.271s-6.406-14.271-14.271-14.271zM16.001 3.461c6.918 0 12.539 5.621 12.539 12.539s-5.621 12.541-12.539 12.541c-6.918 0-12.539-5.623-12.539-12.541s5.621-12.539 12.539-12.539zM19.892 11.246c-0.223-0-0.444 0.085-0.611 0.252l-2.109 2.109c-1.011-0.476-2.266-0.343-3.086 0.479-1.054 1.054-1.054 2.776 0 3.83 0.509 0.511 1.194 0.795 1.914 0.795h0.002c0.72 0 1.405-0.284 1.914-0.793 0.837-0.837 0.98-2.081 0.486-3.094l2.102-2.104c0 0 0.001 0 0.001 0s0.001 0 0.001 0h-0c0.332-0.334 0.332-0.888 0-1.223-0.167-0.168-0.391-0.252-0.613-0.252zM5.19 14.686c-0.483 0-0.883 0.4-0.883 0.883 0 0.484 0.4 0.883 0.883 0.883h1.729c0.483 0 0.883-0.4 0.883-0.883 0-0.484-0.4-0.883-0.883-0.883zM25.081 14.686c-0.483 0-0.883 0.4-0.883 0.883 0 0.484 0.401 0.883 0.883 0.883h1.73c0.483 0 0.881-0.402 0.881-0.883s-0.398-0.883-0.881-0.883zM16.001 15.252c0.203 0 0.388 0.075 0.531 0.219 0.295 0.295 0.295 0.765 0 1.059-0.001 0.001-0.001 0.001-0.002 0.002l-0 0c-0.269 0.269-0.789 0.27-1.059 0-0.295-0.295-0.295-0.765 0-1.059 0.001-0.001 0.001-0.001 0.002-0.002l0-0c0.142-0.143 0.324-0.219 0.527-0.219z" fill="currentColor"/>
 </svg>
